STARTFONT 2.1
COMMENT generated by bdf-starter
FONT FontName
SIZE 12 96 96
FONTBOUNDINGBOX 12 16 0 0
STARTPROPERTIES 3
_GBDFED_INFO "Edited with gbdfed 1.6."
FONT_ASCENT 16
FONT_DESCENT 0
ENDPROPERTIES
CHARS 40
STARTCHAR char0
ENCODING 0
SWIDTH 0 0
DWIDTH 0 0
BBX 0 0 0 0
BITMAP
ENDCHAR
STARTCHAR char56
ENCODING 45
SWIDTH 625 0
DWIDTH 10 0
BBX 7 3 3 7
BITMAP
7C
FE
7C
ENDCHAR
STARTCHAR char56
ENCODING 46
SWIDTH 187 0
DWIDTH 3 0
BBX 9 3 2 0
BITMAP
3E00
7F00
FF80
ENDCHAR
STARTCHAR char48
ENCODING 48
SWIDTH 62 0
DWIDTH 1 0
BBX 11 16 1 0
BITMAP
7FC0
BFA0
DF60
E0E0
E0E0
E0E0
C060
0000
C060
E0E0
E0E0
E0E0
E0E0
DF60
BFA0
7FC0
ENDCHAR
STARTCHAR char49
ENCODING 49
SWIDTH 750 0
DWIDTH 12 0
BBX 3 14 9 1
BITMAP
20
60
E0
E0
E0
60
00
60
E0
E0
E0
E0
60
20
ENDCHAR
STARTCHAR char50
ENCODING 50
SWIDTH 62 0
DWIDTH 1 0
BBX 11 16 1 0
BITMAP
7FC0
3FA0
1F60
00E0
00E0
00E0
1F60
3F80
DF00
E000
E000
E000
E000
DF00
BF80
7FC0
ENDCHAR
STARTCHAR char51
ENCODING 51
SWIDTH 750 0
DWIDTH 12 0
BBX 10 16 2 0
BITMAP
FF80
7F40
3EC0
01C0
01C0
01C0
3EC0
7F00
3EC0
01C0
01C0
01C0
01C0
3EC0
7F40
FF80
ENDCHAR
STARTCHAR char52
ENCODING 52
SWIDTH 62 0
DWIDTH 1 0
BBX 11 14 1 1
BITMAP
8020
C060
E0E0
E0E0
E0E0
DF60
3F80
1F60
00E0
00E0
00E0
00E0
0060
0020
ENDCHAR
STARTCHAR char53
ENCODING 53
SWIDTH 62 0
DWIDTH 1 0
BBX 11 16 1 0
BITMAP
7FC0
BF80
DF00
E000
E000
E000
DF00
3F80
1F60
00E0
00E0
00E0
00E0
1F60
3FA0
7FC0
ENDCHAR
STARTCHAR char54
ENCODING 54
SWIDTH 187 0
DWIDTH 3 0
BBX 11 16 1 0
BITMAP
7FC0
BF80
DF00
E000
E000
E000
DF00
3F80
DF60
E0E0
E0E0
E0E0
E0E0
DF60
BFA0
7FC0
ENDCHAR
STARTCHAR char55
ENCODING 55
SWIDTH 187 0
DWIDTH 3 0
BBX 11 15 1 1
BITMAP
7FC0
BFA0
DF60
E0E0
E0E0
E0E0
C060
0000
0060
00E0
00E0
00E0
00E0
0060
0020
ENDCHAR
STARTCHAR char56
ENCODING 56
SWIDTH 187 0
DWIDTH 3 0
BBX 11 16 1 0
BITMAP
7FC0
BFA0
DF60
E0E0
E0E0
E0E0
DF60
3F80
DF60
E0E0
E0E0
E0E0
E0E0
DF60
BFA0
7FC0
ENDCHAR
STARTCHAR char57
ENCODING 57
SWIDTH 62 0
DWIDTH 1 0
BBX 11 16 1 0
BITMAP
7FC0
BFA0
DF60
E0E0
E0E0
E0E0
DF60
3F80
1F60
00E0
00E0
00E0
00E0
1F60
3FA0
7FC0
ENDCHAR
STARTCHAR char56
ENCODING 58
SWIDTH 687 0
DWIDTH 11 0
BBX 9 10 2 0
BITMAP
3E00
7F00
3E00
0000
0000
0000
0000
3E00
7F00
FF80
ENDCHAR
STARTCHAR char56
ENCODING 65
SWIDTH 187 0
DWIDTH 3 0
BBX 11 15 1 1
BITMAP
7FC0
BFA0
DF60
E0E0
E0E0
E0E0
DF60
3F80
DF60
E0E0
E0E0
E0E0
E0E0
C060
8020
ENDCHAR
STARTCHAR char56
ENCODING 66
SWIDTH 187 0
DWIDTH 3 0
BBX 11 15 1 0
BITMAP
8000
C000
E000
E000
E000
DF00
3F80
DF60
E0E0
E0E0
E0E0
E0E0
DF60
BFA0
7FC0
ENDCHAR
STARTCHAR char56
ENCODING 67
SWIDTH 687 0
DWIDTH 11 0
BBX 10 16 1 0
BITMAP
7FC0
BF80
DF00
E000
E000
E000
C000
0000
C000
E000
E000
E000
E000
DF00
BF80
7FC0
ENDCHAR
STARTCHAR char56
ENCODING 68
SWIDTH 187 0
DWIDTH 3 0
BBX 11 15 1 0
BITMAP
0020
0060
00E0
00E0
00E0
1F60
3F80
DF60
E0E0
E0E0
E0E0
E0E0
DF60
BFA0
7FC0
ENDCHAR
STARTCHAR char56
ENCODING 69
SWIDTH 687 0
DWIDTH 11 0
BBX 10 16 1 0
BITMAP
7FC0
BF80
DF00
E000
E000
E000
DF00
3F80
DF00
E000
E000
E000
E000
DF00
BF80
7FC0
ENDCHAR
STARTCHAR char56
ENCODING 70
SWIDTH 687 0
DWIDTH 11 0
BBX 10 15 1 1
BITMAP
7FC0
BF80
DF00
E000
E000
E000
DF00
3F80
DF00
E000
E000
E000
E000
C000
8000
ENDCHAR
STARTCHAR char56
ENCODING 71
SWIDTH 187 0
DWIDTH 3 0
BBX 11 16 1 0
BITMAP
7FC0
BF80
DF00
E000
E000
E000
C000
0000
C060
E0E0
E0E0
E0E0
E0E0
DF60
BFA0
7FC0
ENDCHAR
STARTCHAR char56
ENCODING 72
SWIDTH 187 0
DWIDTH 3 0
BBX 11 14 1 1
BITMAP
8020
C060
E0E0
E0E0
E0E0
DF60
3F80
DF60
E0E0
E0E0
E0E0
E0E0
C060
8020
ENDCHAR
STARTCHAR char56
ENCODING 73
SWIDTH 687 0
DWIDTH 11 0
BBX 9 16 2 0
BITMAP
FF80
7F00
3E00
0000
1C00
1C00
0000
0000
0000
1C00
1C00
1C00
0000
3E00
7F00
FF80
ENDCHAR
STARTCHAR char56
ENCODING 74
SWIDTH 187 0
DWIDTH 3 0
BBX 11 15 1 0
BITMAP
0020
0060
00E0
00E0
00E0
0060
0000
C060
E0E0
E0E0
E0E0
E0E0
DF60
BFA0
7FC0
ENDCHAR
STARTCHAR char56
ENCODING 75
SWIDTH 187 0
DWIDTH 3 0
BBX 11 14 1 1
BITMAP
8000
C1E0
E3C0
E780
E000
DF00
3F80
DF60
E0E0
E0E0
E0E0
E0E0
C060
8020
ENDCHAR
STARTCHAR char56
ENCODING 76
SWIDTH 687 0
DWIDTH 11 0
BBX 10 15 1 0
BITMAP
8000
C000
E000
E000
E000
C000
0000
C000
E000
E000
E000
E000
DF00
BF80
7FC0
ENDCHAR
STARTCHAR char56
ENCODING 77
SWIDTH 187 0
DWIDTH 3 0
BBX 11 15 1 1
BITMAP
7FC0
BFA0
DF60
E0E0
EEE0
EEE0
C060
0000
C060
EEE0
EEE0
EEE0
E0E0
C060
8020
ENDCHAR
STARTCHAR char56
ENCODING 78
SWIDTH 250 0
DWIDTH 4 0
BBX 11 15 1 1
BITMAP
7FC0
BFA0
DF60
E0E0
E0E0
E0E0
C060
0000
C060
E0E0
E0E0
E0E0
E0E0
C060
8020
ENDCHAR
STARTCHAR char56
ENCODING 79
SWIDTH 187 0
DWIDTH 3 0
BBX 11 16 1 0
BITMAP
7FC0
BFA0
DF60
E0E0
E0E0
E0E0
C060
0000
C060
E0E0
E0E0
E0E0
E0E0
DF60
BFA0
7FC0
ENDCHAR
STARTCHAR char56
ENCODING 80
SWIDTH 187 0
DWIDTH 3 0
BBX 11 15 1 1
BITMAP
7FC0
BFA0
DF60
E0E0
E0E0
E0E0
DF60
3F80
DF00
E000
E000
E000
E000
C000
8000
ENDCHAR
STARTCHAR char56
ENCODING 81
SWIDTH 187 0
DWIDTH 3 0
BBX 11 16 1 0
BITMAP
7FC0
BFA0
DF60
E0E0
E0E0
E0E0
C060
0000
C060
EEE0
EEE0
EEE0
E0E0
DF60
BFA0
7FC0
ENDCHAR
STARTCHAR char56
ENCODING 82
SWIDTH 187 0
DWIDTH 3 0
BBX 11 15 1 1
BITMAP
7FC0
BFA0
DF60
E0E0
E0E0
E0E0
C060
0000
C000
E000
E000
E000
E000
C000
8000
ENDCHAR
STARTCHAR char56
ENCODING 83
SWIDTH 187 0
DWIDTH 3 0
BBX 11 16 1 0
BITMAP
7FC0
BF80
DF00
E000
E000
E000
DF00
3F80
1F60
00E0
00E0
00E0
00E0
1F60
3FA0
7FC0
ENDCHAR
STARTCHAR char56
ENCODING 84
SWIDTH 687 0
DWIDTH 11 0
BBX 10 15 1 0
BITMAP
8000
C000
E000
E000
E000
DF00
3F80
DF00
E000
E000
E000
E000
DF00
BF80
7FC0
ENDCHAR
STARTCHAR char56
ENCODING 85
SWIDTH 187 0
DWIDTH 3 0
BBX 11 15 1 0
BITMAP
8020
C060
E0E0
E0E0
E0E0
C060
0000
C060
E0E0
E0E0
E0E0
E0E0
DF60
BFA0
7FC0
ENDCHAR
STARTCHAR char56
ENCODING 86
SWIDTH 187 0
DWIDTH 3 0
BBX 11 14 1 1
BITMAP
8020
C060
E0E0
E0E0
E0E0
C060
0180
C3C0
E780
EF00
EE00
EC00
C800
8000
ENDCHAR
STARTCHAR char56
ENCODING 87
SWIDTH 187 0
DWIDTH 3 0
BBX 11 15 1 0
BITMAP
8020
C060
E0E0
EEE0
EEE0
C060
0000
C060
EEE0
EEE0
EEE0
E0E0
DF60
BFA0
7FC0
ENDCHAR
STARTCHAR char56
ENCODING 88
SWIDTH 187 0
DWIDTH 3 0
BBX 11 14 1 1
BITMAP
8020
C060
E0E0
F1E0
7BC0
3B80
0000
1B00
3B80
7BC0
F1E0
E0E0
C060
8020
ENDCHAR
STARTCHAR char56
ENCODING 89
SWIDTH 187 0
DWIDTH 3 0
BBX 11 15 1 0
BITMAP
8020
C060
E0E0
E0E0
E0E0
DF60
3F80
1F60
00E0
00E0
00E0
00E0
1F60
3FA0
7FC0
ENDCHAR
STARTCHAR char56
ENCODING 90
SWIDTH 187 0
DWIDTH 3 0
BBX 11 16 1 0
BITMAP
7FC0
3FA0
1F60
00E0
01E0
03C0
0380
0B00
1A00
3800
7800
F000
E000
DF00
BF80
7FC0
ENDCHAR
ENDFONT
